<?xml version="1.0" encoding="UTF-8" standalone="no"?>
<svg
   xmlns:dc="http://purl.org/dc/elements/1.1/"
   xmlns:cc="http://creativecommons.org/ns#"
   xmlns:rdf="http://www.w3.org/1999/02/22-rdf-syntax-ns#"
   xmlns:svg="http://www.w3.org/2000/svg"
   xmlns="http://www.w3.org/2000/svg"
   xmlns:sodipodi="http://sodipodi.sourceforge.net/DTD/sodipodi-0.dtd"
   xmlns:inkscape="http://www.inkscape.org/namespaces/inkscape"
   viewBox="0 0 433.9 164.89"
   version="1.1"
   id="svg3873"
   sodipodi:docname="DOG_logo_watermark.svg"
   inkscape:version="0.92.2 (5c3e80d, 2017-08-06)">
  <metadata
     id="metadata3877">
    <rdf:RDF>
      <cc:Work
         rdf:about="">
        <dc:format>image/svg+xml</dc:format>
        <dc:type
           rdf:resource="http://purl.org/dc/dcmitype/StillImage" />
        <dc:title>Element 1</dc:title>
      </cc:Work>
    </rdf:RDF>
  </metadata>
  <sodipodi:namedview
     pagecolor="#ffffff"
     bordercolor="#666666"
     borderopacity="1"
     objecttolerance="10"
     gridtolerance="10"
     guidetolerance="10"
     inkscape:pageopacity="0"
     inkscape:pageshadow="2"
     inkscape:window-width="1920"
     inkscape:window-height="1017"
     id="namedview3875"
     showgrid="false"
     inkscape:zoom="2.876339"
     inkscape:cx="181.05546"
     inkscape:cy="81.260355"
     inkscape:window-x="-8"
     inkscape:window-y="-8"
     inkscape:window-maximized="1"
     inkscape:current-layer="Ebene_1-2"
     inkscape:snap-page="true" />
  <defs
     id="defs3791">
    <style
       id="style3789">.cls-1{fill:#3c3c3b;}.cls-1,.cls-2,.cls-4{fill-rule:evenodd;}.cls-2{fill:#ce0f41;}.cls-3,.cls-4{fill:#8a8989;}</style>
  </defs>
  <title
     id="title3793">Element 1</title>
  <g
     id="Ebene_2"
     data-name="Ebene 2">
    <g
       id="Ebene_1-2"
       data-name="Ebene 1">
      <g
         id="g5353"
         transform="matrix(0.5,0,0,0.5,218.15234,82.427884)">
        <path
           style="fill:#858789;fill-opacity:0.40718563;fill-rule:evenodd"
           id="path3795"
           d="m 380.34796,156.60423 a 7.17,7.17 0 0 1 2.14,-5.35 7.28,7.28 0 0 1 5.35,-2.22 7.37,7.37 0 0 1 5.33,2.22 7.53,7.53 0 0 1 2.29,5.35 7.23,7.23 0 0 1 -2.09,5.38 7.1,7.1 0 0 1 -5.28,2.2 7.55,7.55 0 0 1 -5.46,-2.2 7.46,7.46 0 0 1 -2.3,-5.38 z m -87.35,0 a 7.19,7.19 0 0 1 2.14,-5.35 7.29,7.29 0 0 1 5.34,-2.18 7.37,7.37 0 0 1 5.35,2.22 7.48,7.48 0 0 1 2.28,5.35 7.21,7.21 0 0 1 -2.08,5.38 7.12,7.12 0 0 1 -5.28,2.2 7.67,7.67 0 0 1 -7.76,-7.59 z m -86,0 a 7.16,7.16 0 0 1 2.15,-5.35 7.27,7.27 0 0 1 5.31,-2.18 7.34,7.34 0 0 1 5.34,2.22 7.48,7.48 0 0 1 2.29,5.35 7.19,7.19 0 0 1 -2.11,5.35 7.1,7.1 0 0 1 -5.28,2.2 7.67,7.67 0 0 1 -7.72,-7.59 z m 165.05,-67.579999 a 88.66,88.66 0 0 0 -24.89,-3.45 c -26.71,0 -43.35,15.919999 -42.94,39.519999 0.43,24.83 16.16,39.75 43.66,39.75 7.79,0 16.89,-1.35 27.2,-3.92 v -39.28 l -19.71,0.11 v 24.94 a 52.89,52.89 0 0 1 -9.23,1 c -11.69,0 -20.19,-9.13 -20.41,-21.7 -0.25,-14.25 10.71,-24.16 28.74,-24.16 a 53.1,53.1 0 0 1 14.74,2.68 l 2.85,-15.479999 z m -115,12.999999 c 11.8,0 19.52,8.68 19.77,23.26 0.25,14.58 -7.06,23 -19.08,23 -12.02,0 -19.51,-8.35 -19.76,-22.81 -0.26,-14.92 7,-23.49 19.07,-23.49 z m -0.07,-16.559999 c -24.38,0 -40.12,16.359999 -39.71,40.069999 0.21,11.8 4.5,22 12.31,29.38 7.24,6.9 16.2,10 27.55,10 12.69,0 22.64,-3.7 30,-11.27 6.34,-6.57 10.61,-17.25 10.42,-28 -0.2,-11.69 -4.28,-22 -11.08,-29.049999 -7.49,-7.68 -16.89,-11.13 -29.49,-11.13 z m -98.32,16.999999 h 8.46 c 14.91,0 22.84,7.9 23.1,22.93 0.23,13.35 -8.3,21.81 -22.88,21.81 h -8.66 v -44.71 z m -19.51,-15.669999 v 76.809999 h 27.61 c 13.25,0 22.9,-1.56 30.81,-8.15 8.34,-6.88 12.71,-17.91 12.46,-32.17 -0.43,-24.210001 -14.89,-36.489999 -43.38,-36.489999 z"
           class="cls-1"
           inkscape:connector-curvature="0" />
        <path
           style="fill:#858789;fill-opacity:0.40718563;fill-rule:evenodd"
           id="path3797"
           d="m 387.13796,20.174231 a 2.53,2.53 0 0 0 0.39,-3.52 c -11.48,-14.9999994 -27.79,-13.9199994 -41,-13.1599994 -8.75,0.59 -16.38,1 -21,-2.83000003 v 0 a 2.48,2.48 0 0 0 -3.56,0.36000003 2.46,2.46 0 0 0 0.31,3.46 c 6.13,5.1799996 15,4.5899996 24.56,4.0699996 13.16,-0.8399996 26.79,-1.7099996 36.63,11.0999998 a 2.6,2.6 0 0 0 3.6,0.51 z"
           class="cls-2"
           inkscape:connector-curvature="0" />
        <path
           style="fill:#858789;fill-opacity:0.40718563;fill-rule:evenodd"
           id="path3799"
           d="m 329.58796,26.524231 v 0 c -8.36,-6.92 -9.4,-14.72 -9.53,-15.6 a 2.5129713,2.5129713 0 0 0 -5,0.51 v 0 c 0.19,1.8 1.63,10.88 11.21,18.88 a 2.51,2.51 0 1 0 3.28,-3.79 z"
           class="cls-2"
           inkscape:connector-curvature="0" />
        <path
           style="fill:#858789;fill-opacity:0.40718563;fill-rule:evenodd"
           id="path3801"
           d="m 306.62796,45.454231 c -76.45,-15 -130.24,-11 -159.9,12 -23.48,18.1 -25.01,43.159999 -25.66,53.869999 l -0.09,1.75 a 2.51,2.51 0 0 0 2.34,2.71 2.58,2.58 0 0 0 2.66,-2.36 v 0 l 0.16,-1.82 c 0.57,-10 2,-33.419999 23.68,-50.229999 28.41,-21.94 80.82,-25.66 155.83,-10.91 a 2.55,2.55 0 0 0 1,-5 z"
           class="cls-2"
           inkscape:connector-curvature="0" />
        <path
           style="fill:#858789;fill-opacity:0.40718563;fill-rule:evenodd"
           id="path3803"
           d="m 392.54796,27.454231 a 2.42,2.42 0 0 0 2.81,2 c 4,-0.65 28.25,2.65 31,3.64 a 2.5225235,2.5225235 0 0 0 1.7,-4.75 v 0 c -3.23,-1.14 -28.29,-4.65 -33.58,-3.83 v 0 a 2.48,2.48 0 0 0 -2,2.91 z"
           class="cls-2"
           inkscape:connector-curvature="0" />
        <path
           style="fill:#858789;fill-opacity:0.40718563;fill-rule:evenodd"
           id="path3805"
           d="m 362.72796,78.944231 c 17.75,-20.62 32.94,-24.55 44.13,-27.39 7.66,-1.91 13.18,-3.35 17.4,-9 a 2.49,2.49 0 0 1 3.54,-0.46 2.42,2.42 0 0 1 0.42,3.48 c -5.18,7.1 -12.11,8.87 -20,10.9 -10.62,2.67 -23.73,6 -39.39,23.24 -2,-0.31 -4,-0.55 -6.06,-0.73 z"
           class="cls-2"
           inkscape:connector-curvature="0" />
      </g>
    </g>
  </g>
</svg>
