<svg xmlns="http://www.w3.org/2000/svg" viewBox="0 0 433.9 164.89"><defs><style>.cls-1{fill:#3c3c3b;}.cls-1,.cls-2,.cls-4{fill-rule:evenodd;}.cls-2{fill:#ce0f41;}.cls-3,.cls-4{fill:#8a8989;}</style></defs><title>Element 1</title><g id="Ebene_2" data-name="Ebene 2"><g id="Ebene_1-2" data-name="Ebene 1"><path class="cls-1" d="M259.37,156.53a7.17,7.17,0,0,1,2.14-5.35,7.28,7.28,0,0,1,5.35-2.22,7.37,7.37,0,0,1,5.33,2.22,7.53,7.53,0,0,1,2.29,5.35,7.23,7.23,0,0,1-2.09,5.38,7.1,7.1,0,0,1-5.28,2.2,7.55,7.55,0,0,1-5.46-2.2,7.46,7.46,0,0,1-2.3-5.38Zm-87.35,0a7.19,7.19,0,0,1,2.14-5.35A7.29,7.29,0,0,1,179.5,149a7.37,7.37,0,0,1,5.35,2.22,7.48,7.48,0,0,1,2.28,5.35,7.21,7.21,0,0,1-2.08,5.38,7.12,7.12,0,0,1-5.28,2.2,7.67,7.67,0,0,1-7.76-7.59Zm-86,0a7.16,7.16,0,0,1,2.15-5.35A7.27,7.27,0,0,1,93.48,149a7.34,7.34,0,0,1,5.34,2.22,7.48,7.48,0,0,1,2.29,5.35A7.19,7.19,0,0,1,99,161.92a7.1,7.1,0,0,1-5.28,2.2A7.67,7.67,0,0,1,86,156.53ZM251.07,88.95a88.66,88.66,0,0,0-24.89-3.45c-26.71,0-43.35,15.92-42.94,39.52.43,24.83,16.16,39.75,43.66,39.75,7.79,0,16.89-1.35,27.2-3.92V121.57l-19.71.11v24.94a52.89,52.89,0,0,1-9.23,1c-11.69,0-20.19-9.13-20.41-21.7-.25-14.25,10.71-24.16,28.74-24.16a53.1,53.1,0,0,1,14.74,2.68l2.85-15.48Zm-115,13c11.8,0,19.52,8.68,19.77,23.26s-7.06,23-19.08,23-19.51-8.35-19.76-22.81c-.26-14.92,7-23.49,19.07-23.49ZM136,85.39c-24.38,0-40.12,16.36-39.71,40.07.21,11.8,4.5,22,12.31,29.38,7.24,6.9,16.2,10,27.55,10,12.69,0,22.64-3.7,30-11.27,6.34-6.57,10.61-17.25,10.42-28-.2-11.69-4.28-22-11.08-29.05C158,88.84,148.6,85.39,136,85.39Zm-98.32,17h8.46c14.91,0,22.84,7.9,23.1,22.93.23,13.35-8.3,21.81-22.88,21.81H37.7V102.42ZM18.17,86.72v76.81H45.78c13.25,0,22.9-1.56,30.81-8.15,8.34-6.88,12.71-17.91,12.46-32.17C88.62,99,74.16,86.72,45.67,86.72Z"/><path class="cls-2" d="M266.16,20.1a2.53,2.53,0,0,0,.39-3.52c-11.48-15-27.79-13.92-41-13.16-8.75.59-16.38,1-21-2.83h0a2.48,2.48,0,0,0-3.56.36,2.46,2.46,0,0,0,.31,3.46c6.13,5.18,15,4.59,24.56,4.07,13.16-.84,26.79-1.71,36.63,11.1a2.6,2.6,0,0,0,3.6.51Z"/><path class="cls-2" d="M208.61,26.45h0c-8.36-6.92-9.4-14.72-9.53-15.6a2.49,2.49,0,0,0-5,.51h0c.19,1.8,1.63,10.88,11.21,18.88a2.51,2.51,0,1,0,3.28-3.79Z"/><path class="cls-2" d="M185.65,45.38c-76.45-15-130.24-11-159.9,12C2.27,75.48.74,100.54.09,111.25L0,113a2.51,2.51,0,0,0,2.34,2.71A2.58,2.58,0,0,0,5,113.35H5l.16-1.82c.57-10,2-33.42,23.68-50.23,28.41-21.94,80.82-25.66,155.83-10.91a2.55,2.55,0,0,0,1-5Z"/><path class="cls-2" d="M271.57,27.38a2.42,2.42,0,0,0,2.81,2c4-.65,28.25,2.65,31,3.64a2.52,2.52,0,0,0,1.7-4.75h0c-3.23-1.14-28.29-4.65-33.58-3.83h0a2.48,2.48,0,0,0-2,2.91Z"/><path class="cls-2" d="M241.75,78.87c17.75-20.62,32.94-24.55,44.13-27.39,7.66-1.91,13.18-3.35,17.4-9a2.49,2.49,0,0,1,3.54-.46,2.42,2.42,0,0,1,.42,3.48c-5.18,7.1-12.11,8.87-20,10.9-10.62,2.67-23.73,6-39.39,23.24-2-.31-4-.55-6.06-.73Z"/><path class="cls-3" d="M300.33,150.39c-.35-1.21-1.25-4.22-5.07-4.22-3.52,0-5,2.42-5,4.48a4.64,4.64,0,0,0,1.49,3.37,10.75,10.75,0,0,0,3.64,1.85c1.6.61,3.33,1.37,3.33,3.36a2.89,2.89,0,0,1-3.24,2.91c-3.19,0-3.77-2.49-4-3.62l-1.88.52a5.82,5.82,0,0,0,1.68,3.41,6.37,6.37,0,0,0,4.18,1.42c4,0,5.43-2.85,5.43-5,0-3.27-2.86-4.36-4.84-5.12-2.35-.9-3.75-1.46-3.75-3.24a2.6,2.6,0,0,1,2.83-2.66c2.35,0,3,1.66,3.41,3l1.84-.54Z"/><path class="cls-4" d="M308.08,150.6c-4.25,0-4.86,4.12-4.86,6.66,0,2.95.89,6.63,4.79,6.63,4.48,0,4.84-4.56,4.84-6.78,0-2.65-.82-6.51-4.77-6.51Zm0,1.56c2.7,0,2.74,3.93,2.74,5.09,0,1.43-.12,5.08-2.74,5.08s-2.76-3.65-2.76-5.08c0-1.27.07-5.09,2.76-5.09Z"/><path class="cls-3" d="M318.15,151c0-2.35.13-3.24,2-3.24a3.91,3.91,0,0,1,.89.12v-1.53a6.26,6.26,0,0,0-1.43-.15c-3.27,0-3.29,2.27-3.33,4.79h-1.82v1.53h1.82v11h1.86v-11h2.3V151Z"/><path class="cls-3" d="M323.55,148V151h-1.81v1.53h1.81v6.33c0,3,0,5.06,3.19,5.06a9.52,9.52,0,0,0,1.74-.17v-1.58a4.5,4.5,0,0,1-1.12.12c-1.94,0-1.94-1-1.94-3.43v-6.33h2.45V151h-2.45v-3.12l-1.86.19Z"/><polygon class="cls-3" points="328.78 150.97 331.94 163.54 333.6 163.54 335.61 154.69 337.75 163.54 339.33 163.54 342.42 150.97 340.87 150.97 338.62 160.5 336.3 150.97 334.96 150.97 332.8 160.41 330.65 150.97 328.78 150.97 328.78 150.97"/><path class="cls-4" d="M346.52,154.15a2.37,2.37,0,0,1,2.49-2c2.35,0,2.35,2.22,2.35,3.11v.54a13.42,13.42,0,0,0-1.66-.11c-2.06,0-3.61.49-4.56,1.61a4.44,4.44,0,0,0-.95,2.8,3.5,3.5,0,0,0,3.7,3.77,3.84,3.84,0,0,0,3.62-2.58,12.4,12.4,0,0,0,.16,2.23h1.78a17,17,0,0,1-.23-4v-3.69c0-1.43,0-3-.76-3.87a4.16,4.16,0,0,0-3.31-1.34,5.28,5.28,0,0,0-2.42.54,3.61,3.61,0,0,0-2,2.7l1.84.31Zm4.84,3.13a5.91,5.91,0,0,1-.54,3.44,2.88,2.88,0,0,1-2.58,1.61,1.91,1.91,0,0,1-2.08-2.16c0-2.05,1.17-3,3.74-3a7.41,7.41,0,0,1,1.46.15Z"/><path class="cls-4" d="M356.94,151v12.57h1.86V157c0-3.1,1.35-4.53,3.42-4.29v-2.11c-2.4-.17-3.27,2.08-3.62,3V151Z"/><path class="cls-4" d="M372.49,157.5c-.08-4.73-1.66-6.9-4.48-6.9-2.67,0-4.91,2.14-4.91,6.85,0,3.28,1.21,6.44,4.79,6.44,1.82,0,3.62-.75,4.42-3.67l-1.75-.41c-.29,1-.77,2.53-2.55,2.53-3,0-2.94-3.74-2.94-4.84ZM365.16,156c.15-1.78.72-3.8,2.63-3.8s2.57,1.91,2.57,3.8Z"/><path class="cls-4" d="M290.56,135.25h3.67c5.37,0,7.78-4.1,7.78-8.62,0-3.3-1.46-8.39-7.78-8.39h-3.67v17Zm2.07-15.3h1.61c3.66,0,5.58,2.75,5.58,6.87,0,3.33-1.42,6.73-5.58,6.73h-1.61V120Z"/><path class="cls-4" d="M309.41,122.33c-4.25,0-4.87,4.11-4.87,6.65,0,2.93.89,6.63,4.79,6.63,4.49,0,4.85-4.57,4.85-6.78,0-2.65-.81-6.5-4.77-6.5Zm0,1.56c2.7,0,2.75,3.93,2.75,5.1,0,1.44-.12,5.08-2.75,5.08s-2.75-3.64-2.75-5.08c0-1.28.08-5.1,2.75-5.1Z"/><polygon class="cls-4" points="317.28 118.25 317.28 135.25 319.15 135.25 319.15 131.31 321.14 128.58 324.09 135.25 326.1 135.25 322.38 127.12 325.68 122.69 323.64 122.69 319.15 128.94 319.15 118.25 317.28 118.25 317.28 118.25"/><path class="cls-4" d="M328.08,122.69v8a9.11,9.11,0,0,0,.43,3.31,3,3,0,0,0,2.91,1.66,3.36,3.36,0,0,0,3.29-2.22v1.86h1.73V122.69h-1.87v5.73c0,1.94,0,5.64-2.73,5.64-1.91,0-1.91-1.33-1.91-3.44v-7.93Z"/><path class="cls-4" d="M340.18,135.25H342V128a6,6,0,0,1,.39-2.65,2.23,2.23,0,0,1,2.1-1.43c1.15,0,2,.46,2,2.89v8.49h1.87v-7.42c0-1.48.34-4,2.53-4,1.9,0,1.9,1.81,1.9,3.72v7.65h1.86V127.5c0-1.32,0-2.93-.54-3.77a3.22,3.22,0,0,0-2.77-1.4,3.44,3.44,0,0,0-3.33,2.55,2.75,2.75,0,0,0-3-2.55c-2,0-2.61,1.23-3.09,2.27v-1.9h-1.73v12.56Z"/><path class="cls-4" d="M367.14,129.21c-.08-4.72-1.65-6.88-4.5-6.88-2.65,0-4.88,2.13-4.88,6.84,0,3.29,1.19,6.45,4.79,6.45,1.8,0,3.62-.74,4.4-3.68l-1.76-.4c-.28,1-.76,2.52-2.55,2.52-3,0-2.93-3.75-2.93-4.85Zm-7.32-1.52c.15-1.79.7-3.8,2.62-3.8s2.58,1.92,2.58,3.8Z"/><path class="cls-4" d="M370.05,135.25h1.87v-6.79c0-3.54,1.2-4.59,2.7-4.59,2,0,2,1.54,2,3.62v7.75h1.86v-8A8.18,8.18,0,0,0,378,124a3.17,3.17,0,0,0-3-1.68,3.31,3.31,0,0,0-3.24,2.29v-1.93h-1.74v12.56Z"/><path class="cls-3" d="M382.36,119.75v2.94h-1.82v1.52h1.82v6.32c0,3,0,5.08,3.18,5.08a9.9,9.9,0,0,0,1.74-.18v-1.59a4.19,4.19,0,0,1-1.12.13c-1.94,0-1.94-1-1.94-3.45v-6.32h2.44v-1.52h-2.44v-3.12l-1.86.18Z"/><path class="cls-4" d="M390.65,125.87a2.38,2.38,0,0,1,2.49-2c2.35,0,2.35,2.21,2.35,3.11v.54a13.18,13.18,0,0,0-1.65-.1c-2.07,0-3.62.48-4.57,1.6a4.43,4.43,0,0,0-.94,2.8,3.51,3.51,0,0,0,3.69,3.78,3.85,3.85,0,0,0,3.62-2.58,14.33,14.33,0,0,0,.15,2.22h1.8a17.23,17.23,0,0,1-.23-4v-3.69c0-1.44,0-3-.76-3.88a4.21,4.21,0,0,0-3.32-1.33,5.3,5.3,0,0,0-2.42.54,3.57,3.57,0,0,0-2,2.71l1.84.29Zm4.84,3.14a6,6,0,0,1-.53,3.45,2.92,2.92,0,0,1-2.58,1.6,1.91,1.91,0,0,1-2.08-2.16c0-2.05,1.16-3,3.74-3a6.91,6.91,0,0,1,1.45.16Z"/><path class="cls-3" d="M401.3,119.75v2.94h-1.82v1.52h1.82v6.32c0,3,0,5.08,3.19,5.08a10,10,0,0,0,1.73-.18v-1.59a4.25,4.25,0,0,1-1.12.13c-1.94,0-1.94-1-1.94-3.45v-6.32h2.46v-1.52h-2.46v-3.12l-1.86.18Z"/><path class="cls-4" d="M407.92,122.69v12.56h1.86V122.69Zm1.94-2.22V118.3h-2v2.17Z"/><path class="cls-4" d="M417.67,122.33c-4.25,0-4.88,4.11-4.88,6.65,0,2.93.9,6.63,4.79,6.63,4.5,0,4.85-4.57,4.85-6.78,0-2.65-.81-6.5-4.76-6.5Zm-.06,1.56c2.71,0,2.76,3.93,2.76,5.1,0,1.44-.12,5.08-2.76,5.08s-2.75-3.64-2.75-5.08c0-1.28.08-5.1,2.75-5.1Z"/><path class="cls-4" d="M425.54,135.25h1.87v-6.79c0-3.54,1.21-4.59,2.71-4.59,1.92,0,1.92,1.54,1.92,3.62v7.75h1.87v-8a8.35,8.35,0,0,0-.38-3.24,3.13,3.13,0,0,0-3-1.68,3.33,3.33,0,0,0-3.25,2.29v-1.93h-1.73v12.56Z"/><path class="cls-4" d="M290.56,90v11.24c0,2.55.12,6.12,5.09,6.12,5.23,0,5.23-3.77,5.23-6.32V90H299v11.14c0,2.22,0,4.48-3.22,4.48s-3.1-2.14-3.1-4.39V90Zm3.28-1.76a1.27,1.27,0,1,0-1.34-1.27,1.31,1.31,0,0,0,1.34,1.27Zm3.9,0a1.33,1.33,0,0,0,1.33-1.27,1.29,1.29,0,0,0-1.33-1.28,1.27,1.27,0,1,0,0,2.54Z"/><path class="cls-4" d="M304.21,90v17h1c.34-1.2.34-1.23.48-1.76a3.06,3.06,0,0,0,3.19,2c4.3,0,4.79-4.44,4.79-6.7,0-1.81-.31-3.93-1.68-5.33a3.84,3.84,0,0,0-2.71-1,3.57,3.57,0,0,0-3.18,1.91V90Zm1.87,9.71c0-2.4,1.25-4,2.82-4,2.3,0,2.68,2.2,2.68,4.82,0,2-.14,5.16-2.73,5.16-2.77,0-2.77-3.09-2.77-4.09V99.68Z"/><path class="cls-4" d="M325.47,100.93C325.39,96.21,323.81,94,321,94c-2.64,0-4.88,2.11-4.88,6.83,0,3.3,1.19,6.45,4.78,6.45,1.82,0,3.62-.74,4.41-3.66l-1.75-.41c-.28,1-.76,2.52-2.56,2.52-3,0-2.93-3.75-2.93-4.85Zm-7.32-1.53c.16-1.78.72-3.8,2.62-3.8s2.58,1.92,2.58,3.8Z"/><path class="cls-4" d="M328.36,94.42V107h1.86v-6.5c0-3.11,1.36-4.54,3.42-4.32V94.07c-2.4-.17-3.26,2.07-3.62,3V94.42Z"/><path class="cls-3" d="M343.22,97.24a3.81,3.81,0,0,0-4-3.19,3.9,3.9,0,0,0-4.11,3.75,3.14,3.14,0,0,0,.62,1.85c.61.9,1.48,1.23,3.62,1.9,1.12.36,2.45.75,2.45,2.16a2.2,2.2,0,0,1-2.5,2.07,2.68,2.68,0,0,1-2.92-2.43l-1.72.39c.2,1,.73,3.59,4.5,3.59,3.19,0,4.57-2,4.57-3.84,0-2.53-2.24-3.27-3.86-3.77-2.06-.61-2.93-.9-2.93-2.18a2,2,0,0,1,2.16-1.94,2.64,2.64,0,0,1,2.46,2l1.62-.41Z"/><path class="cls-4" d="M355,100.93c-.09-4.72-1.66-6.88-4.48-6.88-2.66,0-4.91,2.11-4.91,6.83,0,3.3,1.21,6.45,4.79,6.45,1.82,0,3.63-.74,4.42-3.66l-1.75-.41c-.29,1-.77,2.52-2.55,2.52-3,0-2.94-3.75-2.94-4.85Zm-7.33-1.53c.16-1.78.72-3.8,2.64-3.8s2.57,1.92,2.57,3.8Z"/><path class="cls-3" d="M358.1,91.48v2.94h-1.81v1.52h1.81v6.32c0,3,0,5.07,3.19,5.07a10.77,10.77,0,0,0,1.74-.16v-1.59a4.36,4.36,0,0,1-1.12.13c-1.94,0-1.94-1-1.94-3.45V95.94h2.44V94.42H360V91.29l-1.87.18Z"/><polygon class="cls-3" points="364.48 94.42 364.48 95.94 369.55 95.94 364.01 105.44 364.01 106.98 371.95 106.98 371.95 105.44 366.14 105.44 371.95 95.42 371.95 94.42 364.48 94.42 364.48 94.42"/><path class="cls-4" d="M374.06,94.42v7.94a9.18,9.18,0,0,0,.43,3.33,3,3,0,0,0,2.9,1.64,3.33,3.33,0,0,0,3.29-2.21V107h1.74V94.42h-1.86v5.73c0,1.93,0,5.63-2.73,5.63-1.91,0-1.91-1.33-1.91-3.45V94.42Z"/><path class="cls-4" d="M386.13,107H388v-6.78c0-3.54,1.2-4.6,2.7-4.6,2,0,2,1.53,2,3.63V107h1.85V99a8.38,8.38,0,0,0-.38-3.24,3.17,3.17,0,0,0-3-1.68,3.29,3.29,0,0,0-3.23,2.3V94.42h-1.74V107Z"/><path class="cls-4" d="M407.24,92.44c-1.49,0-2.52,0-3,2.14a4.68,4.68,0,0,0-2.1-.53,4.24,4.24,0,0,0-4.2,4.34,4.19,4.19,0,0,0,1.45,3.31A2.41,2.41,0,0,0,397.8,104a2.21,2.21,0,0,0,1.18,2,2.3,2.3,0,0,0-1.66,2.5c0,3,3.39,3.29,5,3.29,1.23,0,5.33-.21,5.33-3.65,0-3-2.18-3.09-4.79-3.21s-3.33-.15-3.33-1.28c0-.81.6-1,1.05-1.17a5.15,5.15,0,0,0,1.56.23,4.12,4.12,0,0,0,4.22-4.31,4.61,4.61,0,0,0-1-2.83c.1-.82.35-1.59,1.32-1.59a1.89,1.89,0,0,1,.51.06V92.44Zm-5,3.16c1.58,0,2.21,1.53,2.21,2.84,0,1.85-1.12,2.8-2.29,2.8-.92,0-2.24-.61-2.24-2.8,0-.71.15-2.84,2.33-2.84Zm-2,10.84c3.5.1,3.91.12,4.36.26a1.42,1.42,0,0,1,1.1,1.5c0,1.88-2.22,2.07-3.29,2.07-1.91,0-3.24-.43-3.24-2.12a1.92,1.92,0,0,1,1.06-1.71Z"/></g></g></svg>